# xmcd CD database file
#
# Track frame offsets:
#	150
#	20240
#	39137
#	60477
#	79765
#	101982
#	122762
#	142362
#	160152
#	178865
#	199532
#	215402
#
# Disc length: 3217 seconds
#
# Revision: 0
# Processed by: cddbd v1.5.1PL0 Copyright (c) Steve Scherf et al.
# Submitted via: CDex 1.51
#
DISCID=ac0c8f0c
DTITLE=CRIPTON - ボーイフレンド・ガールフレンド
DYEAR=1900
DGENRE=Pop
TTITLE0=嵐ヶ丘
TTITLE1=CHU-CHU-CHU
TTITLE2=風の扉
TTITLE3=おしゃれ泥棒
TTITLE4=スウィート・スウィート・サマー
TTITLE5=ライク・ア・ジェリー・フィッシュ
TTITLE6=ヌード
TTITLE7=恋はファン・ファン・ファン
TTITLE8=ボーイフレンド・ガールフレンド
TTITLE9=天使に逢えない
TTITLE10=オールドベイリーでつかまえて
TTITLE11=オール・ユア・ラヴ
EXTD=
EXTT0=
EXTT1=
EXTT2=
EXTT3=
EXTT4=
EXTT5=
EXTT6=
EXTT7=
EXTT8=
EXTT9=
EXTT10=
EXTT11=
PLAYORDER=
